<svg width="28" height="28" viewBox="0 0 28 28" fill="none" xmlns="http://www.w3.org/2000/svg">
<path d="M21.2541 5C20.3165 5 19.6133 5.70323 19.6133 6.64086C19.6133 7.5785 20.3165 8.28172 21.2541 8.28172C22.1918 8.28172 22.895 7.5785 22.895 6.64086C22.895 5.70323 22.1918 5 21.2541 5Z" fill="#E7E7E7"/>
<path d="M14.0635 7.0332C10.313 7.0332 7.1875 10.0805 7.1875 13.9092C7.1875 17.6597 10.2348 20.7852 14.0635 20.7852C17.814 20.7852 20.9395 17.7379 20.9395 13.9092C20.8614 10.1587 17.814 7.0332 14.0635 7.0332ZM14.0635 18.2848C11.6413 18.2848 9.68786 16.3314 9.68786 13.9092C9.68786 11.487 11.6413 9.53356 14.0635 9.53356C16.4857 9.53356 18.4391 11.487 18.4391 13.9092C18.4391 16.3314 16.4857 18.2848 14.0635 18.2848Z" fill="#E7E7E7"/>
<path d="M19.4559 27.8165H8.36058C3.75054 27.8165 0 24.066 0 19.4559V8.36058C0 3.75054 3.75054 0 8.36058 0H19.4559C24.066 0 27.8165 3.75054 27.8165 8.36058V19.4559C27.8165 24.066 24.066 27.8165 19.4559 27.8165ZM8.36058 2.65663C5.157 2.65663 2.65663 5.23513 2.65663 8.36058V19.4559C2.65663 22.6595 5.23513 25.1599 8.36058 25.1599H19.4559C22.6595 25.1599 25.1599 22.5814 25.1599 19.4559V8.36058C25.1599 5.157 22.5814 2.65663 19.4559 2.65663H8.36058V2.65663Z" fill="#E7E7E7"/>
</svg>
